P3
8 8
255
34 177 76  34 177 76  34 177 76  34 177 76  34 177 76  34 177 76  34 177 76  34 177 76
34 177 76  0 0 0      0 0 0      34 177 76  34 177 76  0 0 0      0 0 0      34 177 76
34 177 76  0 0 0      0 0 0      34 177 76  34 177 76  0 0 0      0 0 0      34 177 76
34 177 76  34 177 76  34 177 76  0 0 0      0 0 0      34 177 76  34 177 76  34 177 76
34 177 76  34 177 76  0 0 0      0 0 0      0 0 0      0 0 0      34 177 76  34 177 76
34 177 76  34 177 76  0 0 0      0 0 0      0 0 0      0 0 0      34 177 76  34 177 76
34 177 76  34 177 76  0 0 0      34 177 76  34 177 76  0 0 0      34 177 76  34 177 76
34 177 76  34 177 76  34 177 76  34 177 76  34 177 76  34 177 76  34 177 76  34 177 76
